<svg width="129" height="40" viewBox="0 0 129 40" fill="none" xmlns="http://www.w3.org/2000/svg">
<g clip-path="url(#clip0)">
<path d="M104.976 30.6658C105.348 30.5379 107.452 27.7015 107.813 27.2598C107.94 27.097 110.289 23.7724 110.591 23.2726C111.625 21.5637 112.637 19.8317 113.683 18.1345C114.497 16.7977 116.124 15.0308 117.717 14.7401C118.693 14.5542 119.205 14.7169 120.065 15.147C121.146 15.6934 121.657 16.6698 121.216 17.8904C120.03 21.2034 118.344 23.0052 115.764 25.2255C115.183 25.7253 113.706 26.5972 113.032 27.004C112.823 27.1319 112.579 27.3295 112.509 27.5504C112.009 29.1662 111.893 30.8169 112.311 32.4676C112.59 33.5603 112.869 33.7811 113.95 33.4091C114.857 33.1069 115.764 32.6652 116.543 32.0956C119.379 30.0264 121.902 27.6085 124.157 24.9116C125.377 23.4469 126.098 22.5286 127.319 21.0755C127.481 20.8779 128.202 20.1921 128.423 20.0526C128.493 20.0061 128.586 20.0177 128.644 20.0758C128.713 20.1339 128.737 20.2269 128.702 20.3083C128.307 21.4359 128.179 22.052 127.656 23.1331C127.307 23.8422 126.098 25.7718 126.051 25.83C124.18 28.5617 120.541 33.1185 116.891 35.1063C114.904 36.1874 112.358 35.8387 110.858 33.9439C109.603 32.3513 109.452 31.1889 109.068 29.2011C108.731 29.6196 108.487 29.9799 108.185 30.2938C107.615 30.8866 107.08 31.5376 106.418 32.0258C105.278 32.8512 104.639 32.3281 103.418 31.898C102.965 31.6771 102.372 31.3284 102.198 30.2008C101.977 28.7361 101.931 24.5164 101.64 22.3775C101.628 22.2728 101.489 22.238 101.419 22.331C100.57 23.5515 100.047 25.4115 99.5243 26.4693C99.0244 27.4923 98.048 30.0032 96.8158 31.1772C96.3973 31.3516 96.4205 31.2935 95.7696 31.0494C95.2348 30.8401 95.3046 30.8866 94.7698 30.6541C94.456 30.5146 94.363 30.4565 94.4095 29.8985C94.4327 29.7009 94.4792 29.3754 94.5141 29.1081C94.6071 28.3757 94.8163 26.3531 94.8861 25.6091C94.9558 24.9581 95.4441 21.3545 95.5022 19.297C95.5022 19.2388 95.4789 19.1807 95.4324 19.1575C95.3511 19.1226 95.2464 19.1575 95.1999 19.2388C94.8861 19.7968 93.805 22.4588 93.5841 23.0517C92.9332 24.8419 92.2706 26.5507 91.6893 28.4571C90.8756 31.1075 90.6664 31.619 90.1433 33.5021C90.027 33.909 89.8643 34.3042 89.6434 34.6646C89.1668 35.4551 88.853 35.5829 87.9695 35.2691C87.551 35.118 87.0163 34.9436 86.4815 34.653C85.9352 34.3624 85.9584 33.9671 86.0049 33.5719C86.2491 31.5143 86.3537 29.7823 86.6792 27.7248C86.9349 26.1089 87.272 24.5164 87.6091 22.7611C87.3301 22.9587 87.1441 23.0982 86.9465 23.2261C85.6562 24.0863 84.3659 24.9232 83.0756 25.7951C82.9361 25.8881 82.7501 26.0973 82.6919 26.2601C82.2037 27.8061 81.7155 29.1081 80.6693 30.224C79.4603 31.5144 78.0305 32.3978 76.159 31.9445C75.7056 31.8398 75.2639 31.5725 74.8803 31.2819C74.4269 30.9447 74.0317 30.5495 73.6945 30.0962C73.4039 29.7009 73.2412 29.4336 73.1017 29.0848C73.0785 29.0383 72.8808 28.5501 72.8692 28.2246C72.8692 28.1316 72.8576 27.9689 72.8343 27.9107C71.6719 29.3522 70.5559 30.8169 69.347 32.2002C68.324 33.3627 67.1034 34.3275 65.5225 34.6181C64.36 34.8273 61.4655 34.467 60.3845 32.3513C59.873 31.3632 59.6521 30.3286 59.5591 29.2592C59.501 28.5152 59.594 27.2481 59.687 26.5042C59.8497 25.3301 60.1752 23.877 61.0354 21.8311C61.512 20.6919 62.6977 18.3554 63.6509 17.2975C63.7904 17.1348 64.3717 16.6001 64.6274 16.4722C65.4644 16.0421 66.0805 15.9142 67.2662 15.705C68.2659 15.5306 69.254 15.6469 69.9514 16.5536C70.1026 16.7396 70.3351 17.3324 70.3816 17.5533C70.6024 18.6344 70.6954 19.297 70.2188 20.4129C70.0793 20.7617 69.7655 20.9244 69.4167 21.1569C69.1959 21.2964 68.8006 21.4591 68.51 21.5521C68.4054 21.587 68.2891 21.5289 68.2659 21.4126C67.8939 20.0874 68.2891 18.5995 67.4638 17.2394C67.3592 17.0651 67.1151 17.0534 66.9988 17.2162C66.6966 17.6347 66.4176 18.0066 66.1735 18.4019C65.7201 19.1458 65.3016 19.9014 64.8948 20.6687C64.2322 21.8892 63.7439 23.1679 63.2906 24.4815C62.6629 26.2949 62.4885 28.1316 62.6164 29.9915C62.6861 31.0494 62.8024 32.1537 63.5696 33.0139C63.7091 33.1767 63.9532 33.2115 64.1392 33.0953C64.5112 32.8744 64.8831 32.6536 65.2203 32.3862C67.5684 30.503 68.9982 28.5501 70.8582 26.2368C71.5673 25.3533 72.567 23.9817 73.2179 23.0633C74.0782 21.866 74.857 20.6105 75.7172 19.3202C75.7637 19.2505 75.7288 19.1458 75.6358 19.1226C75.508 19.0993 75.4034 19.0761 75.3104 19.0528C75.2174 19.0296 75.1592 18.925 75.2057 18.832C75.4964 18.2391 76.0195 17.9601 76.6239 17.809C78.0421 17.437 79.5301 17.6695 80.739 18.4019C81.6225 18.9366 81.9015 19.6225 82.1107 19.9828C82.599 20.8082 82.9826 21.7149 83.0988 23.2028C83.68 22.9122 84.2148 22.6681 84.7262 22.3891C85.6911 21.866 86.6443 21.3313 87.5859 20.7617C87.737 20.6687 87.8765 20.4362 87.8997 20.2502C87.9811 19.7387 88.6205 17.4719 88.667 16.8791C88.7018 16.4606 88.8413 16.1932 89.2133 16.0886C90.5966 15.705 91.3755 15.3214 91.4568 17.1464C91.4685 17.5184 90.2363 22.3426 90.1781 22.7146C90.1316 23.0633 89.4226 26.2252 89.6202 26.1671C89.7597 26.1322 90.4455 23.97 91.5731 21.3545C92.5379 19.1458 93.9794 17.1116 94.8977 16.8791C95.5952 16.7047 96.3043 16.8791 96.9785 17.1929C97.5249 17.4487 98.0596 17.7044 98.0596 18.3321C98.0596 20.4827 98.0131 21.0871 97.9201 22.0869C97.6992 24.3304 97.5365 25.0279 97.2924 26.2601C97.2691 26.3647 97.4202 26.4228 97.4667 26.3182C97.5249 26.2019 98.8617 23.691 99.2104 23.0517C99.501 22.5053 99.8614 21.8311 100.036 21.5637C100.233 21.2383 100.443 20.936 101.012 20.843C101.582 20.75 102.024 20.75 102.489 20.9012C103.163 21.122 103.872 21.9939 104 22.9703C104.244 24.9232 104.302 25.644 104.36 27.4341C104.395 28.4687 104.523 29.4917 104.604 30.5263C104.616 30.596 104.651 30.6541 104.709 30.689C104.802 30.7006 104.918 30.689 104.976 30.6658ZM76.1008 24.5745C75.9613 25.551 76.2984 26.4809 77.9491 26.1554C79.7161 25.8067 80.4019 24.5164 80.4252 23.598C80.46 21.959 80.0532 20.8198 79.9602 20.5989C79.6347 19.8433 79.379 19.3783 79.0302 19.1575C78.9837 19.1226 78.6001 19.3318 78.4606 19.5062C78.0654 20.0061 77.6818 20.5292 77.3563 21.0871C76.6704 22.2263 76.2752 23.3539 76.1008 24.5745ZM119.077 16.5071C119.042 16.4141 118.926 16.3676 118.844 16.4141C117.589 17.1116 116.74 18.2275 116.019 19.3667C115.136 20.7617 114.508 22.3077 113.776 23.7957C113.695 23.9584 113.636 24.1444 113.555 24.3769C113.543 24.4118 113.578 24.435 113.602 24.4234C113.729 24.3536 113.846 24.2606 113.869 24.249C115.915 22.5635 116.856 21.5289 118.251 19.3318C118.554 18.8552 119.321 17.2045 119.077 16.5071ZM78.821 28.12C77.5074 27.9689 76.4147 27.7364 75.2174 27.3179C75.2755 28.12 75.2639 28.9802 75.4382 29.8055C75.601 30.5495 76.2636 30.7123 76.8564 30.224C77.6004 29.6079 78.2514 28.8523 78.821 28.12ZM20.0473 6.13799C18.6872 6.09149 18.2223 6.88196 17.7689 7.8933C17.0249 9.54398 15.7811 12.6361 15.3161 13.5428C14.7233 14.682 11.8869 21.5754 11.2708 22.9819C10.8639 23.9119 8.49252 29.6893 7.26032 32.0142C6.01649 34.3507 4.40068 36.4897 4.34256 36.2223C3.92407 34.5135 4.6448 29.2243 5.0749 26.5972C5.50501 23.9119 6.17923 21.2731 6.79534 18.6227C7.26032 16.6117 7.46956 15.8445 7.96941 13.8334C8.09728 13.2987 9.17837 9.16037 9.27136 8.28853C9.36436 7.45156 9.01562 6.6611 8.51577 6.57972C7.73692 6.46348 7.00458 6.53323 6.21411 6.5681C6.10949 6.5681 5.90025 6.73084 5.86537 6.89359C5.8305 7.02146 5.93512 7.31207 5.90025 7.43994C5.70263 8.16066 5.45851 8.86976 5.27252 9.59048C5.0749 10.3809 4.69129 11.7526 4.48205 12.5315C4.05194 14.124 2.7035 19.7154 2.35476 21.215C2.01765 22.6681 0.948192 28.1897 0.738951 29.4801C0.622705 30.2124 0.076352 33.6416 0.0414784 34.7111C-0.00501974 36.5129 -0.0863916 38.6053 2.01765 39.6864C3.51722 40.4536 6.46985 39.9189 7.94616 38.0008C10.4919 34.7808 11.3405 31.991 12.3402 29.8288C13.1888 27.9921 14.3745 25.0976 15.165 23.2261C18.0828 15.6934 19.4893 12.4617 20.0938 11.2528C20.1519 11.1365 20.3263 11.183 20.3147 11.3225C20.2682 11.9503 19.7916 20.2153 19.6521 22.4123C19.5475 24.0282 19.2685 28.4571 19.4428 32.2699C19.5126 33.8509 19.7916 36.2572 21.4655 37.8497C22.0351 38.3961 23.5347 39.0935 25.2667 39.0703C27.4056 39.0587 30.3699 37.5824 31.9043 33.5254C33.9038 28.213 34.3339 25.365 35.043 21.2848C36.1357 14.9726 36.6123 5.39402 35.2406 1.5463C34.9965 0.860454 34.2525 0.151357 33.9386 0.0583611C33.6131 -0.0346352 33.2295 0.000238432 32.8227 0.035112C32.5321 0.0583611 32.2298 0.104859 31.6718 0.232729C31.2766 0.325725 31.0557 0.430346 30.7768 0.581465C30.6256 0.662837 30.5559 0.82558 30.6489 0.976699C33.0784 4.7198 32.5321 13.0081 31.2882 20.9709C30.1607 28.2246 27.2196 36.8035 24.5693 35.5016C23.3138 34.8855 23.1859 31.8282 23.1627 29.4917C23.1046 25.1906 23.1046 27.0622 23.2208 21.5754C23.3022 17.8323 23.3719 13.0313 23.4882 8.91626C23.5114 7.02146 23.4533 6.24261 20.0473 6.13799ZM53.8631 19.0296C54.4094 15.9607 55.072 12.1246 55.9555 7.62593C55.9671 7.54456 56.0601 7.47481 56.1415 7.47481C57.0598 7.50969 57.6759 7.50969 58.4664 7.67243C58.9198 7.76543 59.0709 8.05604 59.1174 8.45127C59.1639 8.96275 59.2336 9.49748 59.1523 10.009C58.571 13.4498 57.9201 16.8674 57.3504 20.3083C57.0133 22.3891 56.7227 24.4815 56.5019 26.5855C56.281 28.7245 56.1299 30.875 56.0601 33.0139C56.0253 33.8974 56.1299 34.8157 56.3042 35.3621C56.3972 35.6527 56.5484 35.8038 56.6879 35.7922C57.3737 35.7224 57.8619 34.5832 58.4432 33.9904C58.478 33.9439 58.5129 33.9555 58.5478 33.9904C58.6292 34.0601 58.7803 34.281 58.8035 34.7925C58.8151 35.1412 58.8268 35.4667 58.6524 36.1409C58.5594 36.5129 58.2688 36.8849 58.0014 37.0011C57.3272 37.315 55.8974 37.3615 54.7349 36.757C53.5376 36.1409 52.6193 35.1993 52.5263 33.4324C52.4565 31.9096 52.4216 31.0726 52.5379 29.7009C52.6309 28.7012 52.7006 27.9689 52.8285 26.6553C52.5844 26.9227 52.3519 27.1668 52.2357 27.3063C50.9105 28.8523 49.6201 30.4216 48.2601 31.9445C47.5161 32.7698 46.714 33.5486 45.8538 34.2461C45.3191 34.6879 44.6565 35.0017 44.0171 35.2807C41.8898 36.1758 39.7858 35.6643 38.1351 33.816C36.1357 31.5725 35.8451 29.0732 36.6123 26.3182C37.4144 23.4469 38.2048 21.9822 39.8788 19.1691C40.646 17.8671 42.4245 15.3446 44.5983 14.8448C45.3074 14.682 46.0979 14.8564 46.807 15.1121C48.2368 15.6352 48.4926 16.5303 48.2252 18.0415C47.8881 19.9712 46.3188 21.9822 43.7846 24.1909C43.215 24.6791 40.7971 26.6088 40.1461 27.0157C39.8904 27.1784 39.623 27.4341 39.5417 27.7015C39.0651 29.3057 39.0418 30.4565 39.2743 31.991C39.437 33.0488 40.3089 33.6416 41.3086 33.351C44.145 32.5141 46.1793 30.2473 47.5742 28.7593C48.6553 27.6201 52.3868 23.6329 53.0261 22.6913C53.3284 22.2845 53.526 20.9593 53.8631 19.0296ZM40.6111 24.3536C40.5879 24.4234 40.6576 24.4815 40.7157 24.435C40.8087 24.3653 40.9366 24.2606 41.0412 24.1676C42.9593 22.517 43.8311 21.6219 45.1796 19.5295C45.505 19.018 46.4001 17.2162 46.156 16.449C46.1328 16.3792 46.0514 16.3443 45.9817 16.3792C44.6913 17.1464 43.8079 18.2973 43.029 19.5062C42.4478 20.4013 40.9017 23.691 40.6111 24.3536Z" fill="#702BD8"/>
</g>
<defs>
<clipPath id="clip0">
<rect width="128.718" height="40" fill="white"/>
</clipPath>
</defs>
</svg>
